<svg width="41" height="40" viewBox="0 0 41 40" fill="none" xmlns="http://www.w3.org/2000/svg">
<g clip-path="url(#clip0_38_4533)">
<g clip-path="url(#clip1_38_4533)">
<path d="M36.8902 33.09C35.0602 33.09 33.9602 32.15 33.9102 30.84H35.5902C35.5902 31.26 35.8502 31.83 36.9502 31.89C37.7402 31.89 38.0502 31.47 38.0502 31.1C38.0002 30.58 37.3202 30.52 36.6402 30.42C35.9602 30.32 35.3802 30.16 34.9102 29.95C34.3302 29.64 33.9702 29.06 33.9702 28.38C33.9702 27.18 34.9602 26.29 36.6902 26.29C38.4202 26.29 39.4102 27.18 39.4602 28.44H37.8402C37.7902 28.13 37.7402 27.55 36.7902 27.55C36.1102 27.55 35.7402 27.65 35.6402 28.13C35.6402 28.81 37.0002 28.76 38.1002 29.07C39.0902 29.33 39.7802 29.96 39.7802 30.85C39.8802 32.47 38.5202 33.1 36.9002 33.1" fill="white"/>
<path d="M5.21875 22.0901L10.9188 18.8501L13.9587 24.0801H6.31875L5.21875 22.0901Z" fill="white"/>
<path d="M17.9911 26.3301H16.3711V32.9301H17.9911V26.3301Z" fill="white"/>
<path d="M4.43125 33.09C2.60125 33.09 1.03125 31.57 1.03125 29.69C1.03125 27.81 2.55125 26.29 4.48125 26.29C5.21125 26.29 5.89125 26.5 6.42125 26.87V26.35H8.04125V32.95H6.42125V32.58C5.84125 32.89 5.22125 33.1 4.43125 33.1M2.60125 29.7C2.60125 30.69 3.49125 31.58 4.48125 31.58C5.53125 31.58 6.36125 30.74 6.36125 29.7C6.36125 28.66 5.47125 27.82 4.48125 27.82C3.49125 27.82 2.60125 28.66 2.60125 29.7Z" fill="white"/>
<path d="M26.4709 24.0802L18.4609 10.2102L24.2209 6.91016L34.1609 24.0802H26.4709Z" fill="white"/>
<path d="M12.0203 33.0901C10.1403 33.0901 8.57031 31.5701 8.57031 29.6401C8.57031 27.7101 10.0903 26.2901 12.0203 26.2901C12.7503 26.2901 13.3803 26.5001 13.9603 26.8701V24.1001H15.5803V32.9501H13.9603V32.5801C13.3803 32.8901 12.7603 33.1001 12.0203 33.1001M10.1403 29.7001C10.1403 30.6901 11.0303 31.5801 12.0203 31.5801C13.0103 31.5801 13.9003 30.7401 13.9003 29.7001C13.9003 28.6601 13.0103 27.8201 12.0203 27.8201C11.0303 27.7701 10.1403 28.6601 10.1403 29.7001Z" fill="white"/>
<path d="M11.9219 16.2302L17.6719 12.9902L24.1119 24.0802H18.0419V25.7102H16.3719V24.0802L11.9219 16.2302Z" fill="white"/>
<path d="M29.7117 33.0902C27.8317 33.0902 26.2617 31.5702 26.2617 29.6402C26.2617 27.7102 27.7817 26.2402 29.7117 26.2402C30.4417 26.2402 31.1217 26.4502 31.6517 26.8202V26.3002H33.2717V32.9002H31.6517V32.5902C31.0717 32.9002 30.3917 33.1102 29.7117 33.1102M27.8317 29.7102C27.8317 30.7002 28.7217 31.5902 29.7117 31.5902C30.7017 31.5902 31.5917 30.7502 31.5917 29.7102C31.5917 28.6702 30.7517 27.8302 29.7117 27.8302C28.6717 27.8302 27.8317 28.6702 27.8317 29.7102Z" fill="white"/>
<path d="M24.1088 24.0801H25.7288V32.9301H24.1088V32.5101C23.5288 32.8801 22.8488 33.0901 22.1688 33.0901C20.2888 33.0901 18.7188 31.5701 18.7188 29.6401C18.7188 27.7101 20.2388 26.2401 22.1688 26.2401C22.9588 26.2401 23.5788 26.4501 24.1088 26.8201C24.1088 26.8701 24.1088 24.1001 24.1088 24.1001V24.0801ZM20.2888 29.6801C20.2888 30.6701 21.1788 31.5601 22.1688 31.5601C23.2188 31.5601 24.0487 30.7201 24.0487 29.6801C24.0487 28.6401 23.1588 27.8001 22.1688 27.8001C21.1788 27.7501 20.2888 28.6401 20.2888 29.6801Z" fill="white"/>
</g>
</g>
<defs>
<clipPath id="clip0_38_4533">
<rect width="40.8" height="40" fill="white"/>
</clipPath>
<clipPath id="clip1_38_4533">
<rect width="40.8" height="40" fill="white"/>
</clipPath>
</defs>
</svg>
