<svg width="65" height="40" viewBox="0 0 65 40" fill="none" xmlns="http://www.w3.org/2000/svg">
<g clip-path="url(#clip0_38_4545)">
<g clip-path="url(#clip1_38_4545)">
<path fill-rule="evenodd" clip-rule="evenodd" d="M34.1715 15.5005C34.1715 16.1604 33.6615 16.6803 32.9916 16.6803C32.3217 16.6803 31.8118 16.1704 31.8118 15.5005C31.8118 14.8306 32.3217 14.3207 32.9916 14.3207C33.6515 14.3207 34.1715 14.8306 34.1715 15.5005ZM29.3122 17.8501V18.1601C29.3122 18.1601 28.7523 17.4402 27.5725 17.4402C25.5828 17.4402 24.043 18.9199 24.043 21.0196C24.043 23.1193 25.5728 24.5991 27.5725 24.5991C28.8023 24.5991 29.3122 23.8292 29.3122 23.8292V24.1391C29.3122 24.2891 29.4122 24.3991 29.5722 24.3991H31.0519V17.6002H29.5722C29.4222 17.6002 29.3122 17.7501 29.3122 17.8601V17.8501ZM29.3122 22.1994C29.0523 22.6094 28.4923 22.9693 27.8325 22.9693C26.6526 22.9693 25.7828 22.2494 25.7828 21.0296C25.7828 19.8098 26.6526 19.0899 27.8325 19.0899C28.4424 19.0899 29.0623 19.4499 29.3122 19.8598V22.2094V22.1994ZM32.1218 17.6002H33.8615V24.3991H32.1218V17.6002ZM58.0877 17.4502C56.9079 17.4502 56.348 18.1701 56.348 18.1701V14.3407H54.6082V24.4091H56.088C56.238 24.4091 56.348 24.3091 56.348 24.1491V23.8392C56.348 23.8392 56.9079 24.6091 58.0877 24.6091C60.0774 24.6091 61.6171 23.0793 61.6171 21.0296C61.6171 18.9799 60.0374 17.4502 58.0877 17.4502ZM57.7778 22.9693C57.1179 22.9693 56.5979 22.6094 56.298 22.1994V19.7998C56.5579 19.4399 57.1678 19.0299 57.7778 19.0299C58.9576 19.0299 59.8274 19.7498 59.8274 20.9696C59.8274 22.1894 58.9576 22.9593 57.7778 22.9593V22.9693ZM53.6884 20.3597V24.3991H51.9487V20.5697C51.9487 19.4499 51.5887 18.9899 50.6189 18.9899C50.109 18.9899 49.549 19.2499 49.1891 19.6498V24.3991H47.4494V17.6002H48.8292C48.9791 17.6002 49.0891 17.7001 49.0891 17.8601V18.1701C49.599 17.6601 50.2689 17.4502 50.9288 17.4502C51.6987 17.4502 52.3086 17.6501 52.8185 18.1101C53.4284 18.57 53.6884 19.2299 53.6884 20.3597ZM43.26 17.4502C42.0802 17.4502 41.5203 18.1701 41.5203 18.1701V14.3407H39.7306V24.4091H41.2104C41.3603 24.4091 41.4703 24.3091 41.4703 24.1491V23.8392C41.4703 23.8392 42.0302 24.6091 43.21 24.6091C45.1997 24.6091 46.7395 23.0793 46.7395 21.0296C46.7395 18.9299 45.2097 17.4502 43.26 17.4502ZM42.9501 22.9693C42.2902 22.9693 41.7703 22.6094 41.4703 22.1994V19.7998C41.7303 19.4399 42.3402 19.0299 42.9501 19.0299C44.1299 19.0299 44.9998 19.7498 44.9998 20.9696C44.9998 22.1894 44.1299 22.9593 42.9501 22.9593V22.9693ZM38.2508 17.4502C38.7607 17.4502 39.0707 17.5502 39.0707 17.5502V19.1899C39.0707 19.1899 37.6409 18.68 36.7211 19.7498V24.4991H34.9813V17.6002H36.4611C36.6111 17.6002 36.7211 17.7001 36.7211 17.8601V18.1701C36.981 17.7601 37.6909 17.4502 38.2508 17.4502ZM20.2036 23.7892C20.1037 23.5892 20.0037 23.3292 19.9437 23.1293C19.7937 22.8193 19.6337 22.5194 19.5338 22.2094C18.3039 19.4999 16.9242 16.7403 15.5444 14.0307L15.4944 13.9307C15.3444 13.6708 15.1844 13.3708 15.0345 13.0609C14.8345 12.7509 14.6745 12.401 14.3746 12.091C13.8147 11.3711 12.9448 10.9712 12.0749 10.9712C11.1551 10.9712 10.3352 11.3811 9.77529 12.041C9.51533 12.351 9.31536 12.7009 9.11539 13.0109C8.96541 13.3208 8.80544 13.5708 8.65546 13.8807L8.60547 13.9807C7.22569 16.6903 5.8459 19.4499 4.6161 22.1594V22.2094C4.51611 22.5194 4.35614 22.8193 4.20616 23.1293C4.10618 23.3292 4.00619 23.5392 3.9462 23.7892C3.68624 24.4491 3.63625 25.119 3.74623 25.7289C3.9462 27.1087 4.86606 28.2385 6.09586 28.7484C6.55579 28.9484 7.06571 29.0584 7.57563 29.0584C7.72561 29.0584 7.88558 29.0584 8.03556 29.0084C8.64546 28.9584 9.26537 28.7484 9.82528 28.3985C10.5952 27.9885 11.2551 27.3786 12.0749 26.5088C12.8948 27.3786 13.6047 27.9885 14.3246 28.3985C14.9345 28.7584 15.5544 28.9584 16.1143 29.0084C16.2643 29.0084 16.4242 29.0584 16.5742 29.0584C17.0841 29.0584 17.5941 28.9584 18.054 28.7484C19.3338 28.2385 20.2036 27.0587 20.4036 25.7289C20.5036 25.119 20.4036 24.4491 20.2036 23.7892ZM12.0249 24.759C11.0551 23.5292 10.3852 22.3594 10.1852 21.3896C10.0852 20.9796 10.0852 20.6197 10.1352 20.2697C10.1852 19.9598 10.2852 19.7098 10.4452 19.4999C10.8051 18.9899 11.365 18.68 12.0249 18.68C12.6848 18.68 13.3047 18.9899 13.6047 19.4999C13.7547 19.6998 13.8646 19.9598 13.9146 20.2697C13.9646 20.5797 13.9646 20.9896 13.8646 21.3896C13.6047 22.3594 12.9948 23.4892 12.0249 24.759ZM19.2338 25.5789C19.1338 26.4988 18.4639 27.3186 17.5941 27.6786C17.1341 27.8785 16.6742 27.9385 16.2143 27.8785C15.7543 27.8185 15.2944 27.6786 14.8345 27.4186C14.1746 27.0587 13.5047 26.4988 12.7848 25.6789C13.9646 24.1991 14.7245 22.8693 14.9845 21.6895C15.0845 21.1296 15.1344 20.6197 15.0845 20.1597C15.0345 19.6998 14.8245 19.2899 14.5745 18.9299C14.0146 18.1101 13.0948 17.6501 12.0149 17.6501C10.9351 17.6501 10.0252 18.1601 9.45534 18.9299C9.19538 19.2899 9.0454 19.6998 8.94542 20.1597C8.89542 20.6197 8.89542 21.1296 9.0454 21.6395C9.30536 22.8193 10.0652 24.1991 11.2451 25.6789C10.4752 26.4988 9.81528 27.0587 9.19538 27.4186C8.73545 27.6786 8.27552 27.8285 7.81559 27.8785C7.30567 27.9285 6.84575 27.8785 6.43581 27.6786C5.56595 27.3186 4.90605 26.4988 4.79607 25.5789C4.74608 25.119 4.79607 24.659 4.94605 24.1491C4.99604 23.9492 5.09602 23.7892 5.206 23.5892C5.30599 23.2793 5.46596 22.9793 5.61594 22.6694V22.6194C6.84575 19.9098 8.22553 17.1502 9.60531 14.4906L9.65531 14.3907C9.80528 14.1307 9.96526 13.8307 10.1152 13.5708C10.2652 13.2608 10.4252 13.0109 10.6252 12.7509C10.9851 12.291 11.495 12.091 12.0549 12.091C12.6148 12.091 13.1248 12.351 13.4847 12.7509C13.6847 13.0109 13.8446 13.2608 13.9946 13.5708C14.1446 13.8307 14.3046 14.1307 14.4546 14.3907L14.5045 14.4906C15.8843 17.2002 17.2141 19.9598 18.4939 22.6194C18.6439 22.9293 18.7539 23.2293 18.9039 23.5392C19.0038 23.7392 19.1038 23.9492 19.1638 24.0991C19.2638 24.659 19.3138 25.119 19.2138 25.5789H19.2338Z" fill="white"/>
</g>
</g>
<defs>
<clipPath id="clip0_38_4545">
<rect width="63.7" height="40" fill="white" transform="translate(0.816406)"/>
</clipPath>
<clipPath id="clip1_38_4545">
<rect width="63.7" height="40" fill="white" transform="translate(0.816406)"/>
</clipPath>
</defs>
</svg>
