<svg width="64" height="40" viewBox="0 0 64 40" fill="none" xmlns="http://www.w3.org/2000/svg">
<g clip-path="url(#clip0_38_4553)">
<g clip-path="url(#clip1_38_4553)">
<path d="M3.33993 12.981C3.33993 12.981 3.33993 13.0609 3.33993 13.1009C3.33993 14.6207 3.33993 16.1505 3.33993 17.6702C3.33993 17.7102 3.33993 17.7502 3.33993 17.7902C3.45991 17.7602 3.5599 17.7202 3.66988 17.7002C3.80986 17.6702 3.95983 17.6502 4.09981 17.6502C5.73956 17.6502 7.3793 17.6502 9.01904 17.6502C9.53896 17.6502 9.99889 17.8402 10.3988 18.1801C10.8288 18.5501 11.0787 19.03 11.1687 19.5799C11.1787 19.6599 11.1887 19.7499 11.1887 19.8399C11.1887 21.4996 11.1887 23.1594 11.1887 24.8091C11.1887 25.349 10.9787 25.8289 10.6288 26.2389C10.3788 26.5288 10.0689 26.7388 9.70893 26.8788C9.49897 26.9588 9.289 26.9988 9.06903 26.9988C7.40929 26.9988 5.73956 26.9988 4.07982 26.9988C3.62989 26.9988 3.22995 26.8488 2.87001 26.5988C2.43007 26.2889 2.14012 25.8589 2.00014 25.349C1.96015 25.219 1.95015 25.0891 1.93015 24.9591C1.93015 24.9491 1.92015 24.9391 1.91016 24.9291C1.91016 20.9497 1.91016 16.9703 1.91016 12.991C2.38008 12.991 2.85001 12.991 3.31993 12.991L3.33993 12.981ZM6.56943 25.599C7.14933 25.599 7.72924 25.599 8.30915 25.599C8.42913 25.599 8.54911 25.599 8.6591 25.569C9.34899 25.409 9.79892 24.7891 9.79892 24.1292C9.79892 22.9494 9.79892 21.7596 9.79892 20.5798C9.79892 20.4698 9.78892 20.3498 9.75892 20.2398C9.60895 19.5799 9.01904 19.1 8.32915 19.11C7.14933 19.12 5.96952 19.11 4.7897 19.11C4.21979 19.11 3.79986 19.3999 3.5299 19.8899C3.39992 20.1298 3.34993 20.3898 3.34993 20.6598C3.34993 21.7496 3.34993 22.8294 3.34993 23.9192C3.34993 24.0292 3.34993 24.1392 3.34993 24.2392C3.38992 24.6991 3.58989 25.0591 3.95983 25.339C4.21979 25.529 4.50975 25.609 4.8297 25.609C5.40961 25.609 5.98952 25.609 6.56943 25.609V25.599Z" fill="white"/>
<path d="M62.2713 24.869C62.2613 24.939 62.2513 24.999 62.2413 25.069C62.1813 25.4789 62.0213 25.8489 61.7613 26.1688C61.4314 26.5788 61.0115 26.8487 60.5015 26.9587C60.3816 26.9787 60.2716 26.9987 60.1516 26.9987C58.4819 26.9987 56.8121 26.9987 55.1424 26.9987C54.6525 26.9987 54.2125 26.8187 53.8326 26.5088C53.3827 26.1388 53.1227 25.6589 53.0227 25.089C53.0027 24.969 52.9927 24.849 52.9927 24.739C52.9927 23.1293 52.9827 21.5196 52.9927 19.9198C52.9927 19.0099 53.4327 18.3201 54.2325 17.8901C54.5225 17.7301 54.8524 17.6602 55.1824 17.6602C56.8021 17.6602 58.4319 17.6602 60.0516 17.6602C60.5615 17.6602 61.0215 17.8301 61.4114 18.1501C61.8913 18.54 62.1613 19.0499 62.2413 19.6498C62.2413 19.6998 62.2513 19.7398 62.2613 19.7898V24.879L62.2713 24.869ZM57.642 25.5989C58.2119 25.5989 58.7918 25.5989 59.3617 25.5989C59.4417 25.5989 59.5217 25.5989 59.6017 25.5889C60.3116 25.4989 60.8615 24.859 60.8615 24.1491C60.8615 22.9693 60.8615 21.7995 60.8615 20.6197C60.8615 20.4997 60.8515 20.3897 60.8315 20.2697C60.7115 19.6099 60.1116 19.0899 59.4217 19.0899C58.2319 19.0899 57.0521 19.0899 55.8623 19.0899C55.8023 19.0899 55.7423 19.0899 55.6923 19.0899C54.9424 19.1899 54.4225 19.8198 54.4125 20.5397C54.4125 21.6795 54.4125 22.8193 54.4125 23.9692C54.4125 24.0791 54.4125 24.1891 54.4325 24.2891C54.4825 24.6991 54.6725 25.029 54.9924 25.289C55.2624 25.4989 55.5723 25.5889 55.9123 25.5889C56.4922 25.5889 57.0721 25.5889 57.662 25.5889L57.642 25.5989Z" fill="white"/>
<path d="M40.4842 27.0186C40.4842 27.0186 40.4842 26.9586 40.4842 26.9286C40.4842 26.1387 40.4842 25.3489 40.4842 24.559C40.4842 23.2492 40.4842 21.9394 40.4842 20.6296C40.4842 19.8997 39.9643 19.2798 39.2444 19.1598C39.1744 19.1498 39.0944 19.1498 39.0245 19.1498C37.8446 19.1498 36.6648 19.1498 35.485 19.1498C34.7951 19.1498 34.1952 19.6497 34.0652 20.3296C34.0452 20.4396 34.0352 20.5496 34.0352 20.6596C34.0352 21.4595 34.0352 22.2593 34.0352 23.0592C34.0352 23.5291 34.0352 23.9991 34.0352 24.469C34.0352 25.1389 34.0352 25.7988 34.0452 26.4687C34.0452 26.6586 34.0552 26.8486 34.0652 27.0286H32.6055C32.6055 27.0286 32.6055 26.9586 32.6055 26.9286C32.6055 26.2087 32.6055 25.4888 32.6055 24.7789C32.6055 22.0394 32.6055 19.2898 32.6055 16.5502C32.6055 15.4104 32.6055 14.2706 32.6055 13.1308C32.6055 13.1108 32.6055 13.0808 32.6055 13.0508H34.0152V17.85C34.1452 17.81 34.2752 17.77 34.4052 17.75C34.5252 17.73 34.6551 17.71 34.7751 17.71C36.4149 17.71 38.0546 17.71 39.6944 17.71C40.2543 17.71 40.7342 17.92 41.1441 18.3C41.5241 18.6499 41.754 19.0898 41.844 19.5998C41.864 19.7297 41.874 19.8697 41.874 19.9997C41.874 22.2993 41.874 24.609 41.874 26.9086C41.874 26.9486 41.874 26.9886 41.874 27.0286H40.4642L40.4842 27.0186Z" fill="white"/>
<path d="M16.8385 17.6501C17.6484 17.6501 18.4582 17.6401 19.2681 17.6501C20.128 17.6601 20.7579 18.0701 21.1878 18.8C21.3978 19.1699 21.4878 19.5698 21.4878 19.9998C21.4878 21.5595 21.4878 23.1193 21.4878 24.679C21.4878 25.3589 21.2478 25.9388 20.7579 26.4088C20.3779 26.7687 19.918 26.9787 19.3881 26.9987C18.8482 27.0087 18.3083 26.9987 17.7683 26.9987C16.6785 26.9987 15.5887 26.9987 14.4989 26.9987C13.9789 26.9987 13.499 26.8587 13.0891 26.5387C12.6392 26.1888 12.3492 25.7189 12.2492 25.159C12.2092 24.969 12.1992 24.769 12.1992 24.579C12.1992 23.0193 12.1992 21.4695 12.1992 19.9098C12.1992 18.8499 12.9091 17.9301 13.9489 17.6901C14.0889 17.6601 14.2489 17.6401 14.3889 17.6401C15.2087 17.6401 16.0186 17.6401 16.8385 17.6401V17.6501ZM16.8385 25.5989C17.4184 25.5989 18.0083 25.5989 18.5882 25.5989C18.9682 25.5989 19.2981 25.4789 19.5781 25.2189C19.908 24.909 20.068 24.5191 20.068 24.0791C20.068 22.9493 20.068 21.8095 20.068 20.6797C20.068 20.5597 20.058 20.4297 20.038 20.3097C19.928 19.6298 19.3181 19.0999 18.6182 19.0999C17.4284 19.0999 16.2386 19.0999 15.0488 19.0999C14.9388 19.0999 14.8188 19.1099 14.7088 19.1399C14.0789 19.2799 13.599 19.8898 13.599 20.5397C13.599 21.7195 13.599 22.9093 13.599 24.0891C13.599 24.1791 13.599 24.2591 13.619 24.3491C13.679 24.749 13.869 25.079 14.1989 25.3289C14.4589 25.5289 14.7688 25.6189 15.0988 25.6189C15.6787 25.6189 16.2486 25.6189 16.8285 25.6189L16.8385 25.5989Z" fill="white"/>
<path d="M22.4162 22.3197C22.4162 21.5398 22.4162 20.7499 22.4162 19.97C22.4262 19.0802 22.8062 18.3903 23.5761 17.9303C23.886 17.7404 24.226 17.6504 24.5959 17.6504C26.2356 17.6504 27.8854 17.6504 29.5251 17.6504C30.0351 17.6504 30.495 17.8304 30.8849 18.1703C31.3248 18.5403 31.5748 19.0102 31.6748 19.5701C31.6948 19.6901 31.7048 19.8101 31.7048 19.93C31.7048 21.5298 31.7048 23.1295 31.7048 24.7393C31.7048 25.3992 31.4648 25.9591 30.9849 26.409C30.565 26.809 30.065 27.0189 29.4751 27.0189C27.8654 27.0189 26.2556 27.0189 24.6459 27.0189C23.736 27.0189 22.9062 26.439 22.5762 25.5891C22.4662 25.2892 22.4062 24.9892 22.4062 24.6793C22.4062 23.8994 22.4062 23.1195 22.4062 22.3397L22.4162 22.3197ZM27.0655 25.5991C27.7054 25.5991 28.3453 25.6091 28.9752 25.5991C29.3652 25.5991 29.6851 25.3992 29.9351 25.0992C30.185 24.7993 30.295 24.4493 30.295 24.0594C30.295 22.9196 30.295 21.7797 30.295 20.6399C30.295 20.5299 30.295 20.42 30.265 20.32C30.165 19.6401 29.5551 19.1102 28.8752 19.1102C27.6654 19.1102 26.4656 19.1102 25.2558 19.1102C25.1658 19.1102 25.0758 19.1102 24.9958 19.1302C24.3259 19.2801 23.846 19.87 23.846 20.5599C23.846 21.7497 23.846 22.9496 23.846 24.1394C23.846 24.6493 24.076 25.0592 24.4859 25.3592C24.7359 25.5392 25.0158 25.6091 25.3258 25.6091C25.9057 25.6091 26.4856 25.6091 27.0655 25.6091V25.5991Z" fill="white"/>
<path d="M42.7717 22.3297C42.7717 21.5198 42.7717 20.7099 42.7717 19.89C42.7717 19.3901 42.9317 18.9502 43.2216 18.5502C43.5116 18.1503 43.9015 17.8704 44.3815 17.7404C44.5714 17.6904 44.7614 17.6504 44.9614 17.6504C46.6011 17.6504 48.2309 17.6504 49.8706 17.6504C50.4205 17.6504 50.9004 17.8504 51.3004 18.2203C51.6803 18.5702 51.9203 19.0002 52.0103 19.5001C52.0303 19.6201 52.0503 19.7501 52.0503 19.88C52.0503 21.5098 52.0503 23.1395 52.0503 24.7693C52.0503 25.3592 51.8203 25.8791 51.4104 26.319C51.0704 26.679 50.6605 26.8889 50.1806 26.9789C50.0706 26.9989 49.9506 27.0089 49.8306 27.0089C48.2109 27.0089 46.6011 27.0089 44.9814 27.0089C44.4315 27.0089 43.9515 26.819 43.5416 26.459C43.1017 26.0691 42.8517 25.5891 42.7817 25.0092C42.7817 24.9392 42.7617 24.8593 42.7617 24.7893C42.7617 23.9694 42.7617 23.1495 42.7617 22.3397L42.7717 22.3297ZM47.421 25.5991C48.0009 25.5991 48.5708 25.5991 49.1507 25.5991C49.2407 25.5991 49.3207 25.5991 49.4107 25.5891C49.7706 25.5292 50.0606 25.3692 50.3005 25.0892C50.5205 24.8293 50.6505 24.5193 50.6505 24.1794C50.6505 22.9896 50.6505 21.7997 50.6505 20.5999C50.6505 20.45 50.6305 20.29 50.5905 20.14C50.4305 19.5301 49.8606 19.1002 49.2407 19.1002C48.0309 19.1002 46.8311 19.1002 45.6213 19.1002C45.2513 19.1002 44.9314 19.2401 44.6614 19.5001C44.3515 19.8001 44.2015 20.18 44.2015 20.6099C44.2015 21.6898 44.2015 22.7796 44.2015 23.8594C44.2015 24.0094 44.2015 24.1494 44.2215 24.2993C44.2615 24.6993 44.4515 25.0292 44.7614 25.2792C45.0414 25.5092 45.3713 25.5991 45.7313 25.5991C46.3012 25.5991 46.8711 25.5991 47.441 25.5991H47.421Z" fill="white"/>
</g>
</g>
<defs>
<clipPath id="clip0_38_4553">
<rect width="63.7" height="40" fill="white" transform="translate(0.25)"/>
</clipPath>
<clipPath id="clip1_38_4553">
<rect width="63.7" height="40" fill="white" transform="translate(0.25)"/>
</clipPath>
</defs>
</svg>
