<svg width="62" height="40" viewBox="0 0 62 40" fill="none" xmlns="http://www.w3.org/2000/svg">
<g clip-path="url(#clip0_38_4562)">
<g clip-path="url(#clip1_38_4562)">
<path fill-rule="evenodd" clip-rule="evenodd" d="M1.96875 12.5298V27.4698H60.9588V12.5298H1.96875ZM16.7188 23.9198H12.3488V20.8198C12.2188 21.7098 11.8387 22.4698 11.2688 23.0398C10.3787 23.8598 9.68875 23.9898 8.54875 23.9898H5.56875V16.0798H8.35875C9.62875 16.0798 10.5087 16.2698 11.3387 17.0298C11.9087 17.5998 12.2887 18.3598 12.4187 19.3098V16.0798H16.7887V17.7898H14.3188V19.0598H16.4087V20.7698H14.3188V22.2298H16.7288V23.9398L16.7188 23.9198ZM27.5387 23.8598H25.6388V22.7198H23.7987C23.5487 22.9698 23.2887 23.1598 23.0987 23.2898C22.4688 23.7298 21.7088 23.9898 20.7588 23.9898C20.0588 23.9298 18.7987 23.6698 17.7188 22.5998C17.1488 21.8998 16.7087 20.9498 16.7087 19.8098C16.7688 18.7998 16.9587 18.1598 17.5287 17.3998C18.4788 16.1998 19.6187 15.7498 20.8188 15.7498C22.0888 15.8098 22.9688 16.2598 23.5387 16.7598C23.7887 16.9498 23.8587 17.0098 24.0487 17.1998L23.0387 19.0398C22.8487 18.8498 22.7188 18.7198 22.5287 18.5298C22.5287 18.5298 21.7688 17.7698 20.8188 17.7698C19.6788 17.7698 18.7887 18.7198 18.7887 19.8598C18.7887 21.0598 19.7388 22.1398 20.8787 22.0798C22.0187 22.0198 22.5888 21.1298 22.6488 21.0698L25.4988 16.0098H27.5287V23.8598H27.5387ZM32.9188 17.9098H31.3988V23.9898H29.4387V17.9098H27.9188V16.0698H32.9188V17.9098ZM39.1888 23.9898H37.2287V20.9498H35.1987V23.9898H33.2388V16.0798H35.1987V19.0598H37.2287V16.0798H39.1888V23.9898ZM57.4188 23.9898H55.6488L52.6688 19.6198V23.9898H50.7088V21.3298C50.5188 21.8998 50.1987 22.4698 49.7588 22.9098C48.9988 23.6698 47.9188 24.1098 46.8488 24.1098C45.7788 24.1098 44.8887 23.7898 44.1287 23.1598V23.9798H39.9487V16.0698H41.9087V22.2098H43.3688C42.9288 21.5798 42.7388 20.7498 42.7388 19.9298C42.7388 18.8498 43.1788 17.8398 43.9388 17.0798C44.7588 16.3198 45.7088 15.9398 46.8488 15.9398C47.9288 15.9398 48.9388 16.3198 49.6987 17.0798C50.2087 17.5898 50.5188 18.1598 50.7088 18.7298V16.0698H52.4787L55.3887 20.4398V16.0698H57.4188V23.9798V23.9898Z" fill="white"/>
<path fill-rule="evenodd" clip-rule="evenodd" d="M25.7092 21.1401V19.3701L24.6992 21.1401H25.7092Z" fill="white"/>
<path fill-rule="evenodd" clip-rule="evenodd" d="M46.7892 17.8501C45.6492 17.8501 44.6992 18.8001 44.6992 19.9401C44.6992 21.2101 45.7092 22.1601 46.7892 22.1601C47.9292 22.1601 48.8792 21.2701 48.8192 19.9401C48.8192 18.7401 47.9292 17.8501 46.7892 17.8501Z" fill="white"/>
<path fill-rule="evenodd" clip-rule="evenodd" d="M8.29906 17.78H7.53906V22.21H8.29906C9.81906 22.21 10.5191 21.51 10.5191 19.99C10.5191 18.47 9.75906 17.77 8.29906 17.77V17.78Z" fill="white"/>
</g>
</g>
<defs>
<clipPath id="clip0_38_4562">
<rect width="61" height="40" fill="white" transform="translate(0.96875)"/>
</clipPath>
<clipPath id="clip1_38_4562">
<rect width="61" height="40" fill="white" transform="translate(0.96875)"/>
</clipPath>
</defs>
</svg>
