<svg width="102" height="40" viewBox="0 0 102 40" fill="none" xmlns="http://www.w3.org/2000/svg">
<g clip-path="url(#clip0_38_4569)">
<g clip-path="url(#clip1_38_4569)">
<path fill-rule="evenodd" clip-rule="evenodd" d="M40.0887 25.4095H41.9386L41.6386 23.9596V15.4305H39.8688V19.3301C39.3188 18.7002 38.5889 18.3502 37.719 18.3502C35.9492 18.3502 34.5593 19.82 34.5593 21.9498C34.5593 24.0796 35.9492 25.5495 37.719 25.5495C38.5889 25.5495 39.3788 25.1695 39.8988 24.5396L40.0887 25.4095ZM75.3452 20.26C75.6952 20.26 76.0552 20.34 76.3551 20.56L77.205 18.6802C76.8251 18.4302 76.3551 18.3302 75.9252 18.3302C75.1352 18.3302 74.4553 18.6802 74.0154 19.3701L73.8254 18.5002H71.9956L72.2955 19.86V25.4195H74.0653V20.9999C74.3153 20.56 74.7753 20.26 75.3452 20.26ZM80.5847 23.6997C79.5448 23.6997 78.7849 23.0197 78.7849 21.9498C78.7849 20.8799 79.5448 20.2 80.5847 20.2C81.6246 20.2 82.3845 20.8799 82.3845 21.9498C82.3845 23.0197 81.6446 23.6997 80.5847 23.6997ZM36.3091 21.9498C36.3091 20.8899 37.069 20.2 38.1089 20.2C39.1488 20.2 39.9088 20.8799 39.9088 21.9498C39.9088 23.0197 39.1488 23.6997 38.1089 23.6997C37.069 23.6997 36.3091 23.0197 36.3091 21.9498ZM88.4939 23.6997C87.454 23.6997 86.6941 23.0197 86.6941 21.9498C86.6941 20.8799 87.454 20.2 88.4939 20.2C89.5338 20.2 90.2937 20.8799 90.2937 21.9498C90.2937 23.0197 89.5338 23.6997 88.4939 23.6997ZM46.3181 20.1C47.248 20.1 47.848 20.54 48.038 21.3299H44.5983C44.7883 20.54 45.3882 20.1 46.3181 20.1ZM67.636 20.1C68.5659 20.1 69.1658 20.54 69.3558 21.3299H65.9162C66.1361 20.54 66.7361 20.1 67.636 20.1ZM58.9369 25.4195H61.7966L63.6464 18.4902H61.7066L60.3467 24.0796L58.9869 18.4902H57.077L58.9269 25.4195H58.9369ZM54.3273 25.4195H56.0971V18.4902H54.3273V25.4195ZM46.5881 25.5595C47.568 25.5595 48.5479 25.2895 49.3678 24.7696L48.6879 23.2397C48.0379 23.5697 47.328 23.7897 46.6181 23.7897C45.6882 23.7897 45.0382 23.4397 44.7383 22.7498H49.7578C49.8078 22.4998 49.8378 22.2298 49.8378 21.9298C49.8378 19.7801 48.3379 18.3602 46.3481 18.3602C44.3583 18.3602 42.8585 19.81 42.8585 21.9598C42.8585 24.1096 44.3283 25.5595 46.5981 25.5595H46.5881ZM92.0136 21.9598C92.0136 19.81 90.5137 18.3602 88.4939 18.3602C86.4741 18.3602 84.9743 19.83 84.9743 21.9598C84.9743 24.0896 86.4741 25.5595 88.4939 25.5595C90.5137 25.5595 92.0136 24.1096 92.0136 21.9598ZM67.886 25.5595C68.8659 25.5595 69.8458 25.2895 70.6657 24.7696L69.9858 23.2397C69.3358 23.5697 68.6259 23.7897 67.916 23.7897C66.9861 23.7897 66.3061 23.4397 66.0362 22.7498H71.0557C71.1057 22.4998 71.1357 22.2298 71.1357 21.9298C71.1357 19.7801 69.6358 18.3602 67.646 18.3602C65.6562 18.3602 64.1563 19.81 64.1563 21.9598C64.1563 24.1096 65.6262 25.5595 67.896 25.5595H67.886ZM80.5947 25.5595C82.6145 25.5595 84.1143 24.0896 84.1143 21.9598C84.1143 19.83 82.6145 18.3602 80.5947 18.3602C78.5749 18.3602 77.0751 19.83 77.0751 21.9598C77.0751 24.0896 78.5749 25.5595 80.5947 25.5595ZM50.9577 25.4195H52.7275V15.4405H50.9577V25.4195ZM55.2372 17.5403C55.8672 17.5403 56.3571 17.0503 56.3571 16.4204C56.3571 15.7905 55.8672 15.3005 55.2372 15.3005C54.6073 15.3005 54.1173 15.7905 54.1173 16.4204C54.1173 17.0503 54.6073 17.5403 55.2372 17.5403ZM24.6203 9.14111L23.6104 18.7102L21.8406 10.641L16.3911 11.7908L18.1409 19.86L10.2617 21.5199L11.6516 27.9792L25.5002 30.8689L28.6599 23.8596L30.1597 9.71106L24.6203 9.14111ZM20.2307 23.0497C19.9608 23.2997 19.5808 23.2997 19.1708 23.1597C18.7609 23.0197 18.6009 22.5598 18.7309 21.9898C18.8409 21.5499 19.3808 21.4999 19.6308 21.4999C19.7408 21.4999 19.8208 21.5299 19.9308 21.5499C20.1207 21.6299 20.4507 21.8198 20.5007 22.0998C20.6107 22.4498 20.5307 22.7798 20.2307 23.0497ZM24.2403 23.4897C24.0203 23.8396 23.4804 23.8996 22.9605 23.6297C22.6105 23.4697 22.6105 22.9997 22.6305 22.7298C22.6605 22.5898 22.7105 22.4298 22.7905 22.3198C22.9305 22.1598 23.1404 21.9398 23.3904 21.9398C23.8004 21.9398 24.1503 22.0998 24.3403 22.4298C24.5303 22.7798 24.4503 23.1397 24.2303 23.4897H24.2403Z" fill="white"/>
</g>
</g>
<defs>
<clipPath id="clip0_38_4569">
<rect width="100.28" height="40" fill="white" transform="translate(0.984375)"/>
</clipPath>
<clipPath id="clip1_38_4569">
<rect width="100.28" height="40" fill="white" transform="translate(0.984375)"/>
</clipPath>
</defs>
</svg>
