<svg width="62" height="40" viewBox="0 0 62 40" fill="none" xmlns="http://www.w3.org/2000/svg">
<g clip-path="url(#clip0_38_4573)">
<g clip-path="url(#clip1_38_4573)">
<path d="M51.2706 20.0801C51.1806 20.0801 51.0806 20.0801 50.9906 20.1201C50.8006 20.1701 50.6406 20.2901 50.5306 20.4601C50.4706 20.5301 50.4306 20.6201 50.3906 20.7101C50.3906 20.7201 50.3906 20.7501 50.3906 20.7701H50.4206C50.6106 20.7301 50.7906 20.6901 50.9806 20.6501L51.5206 20.5301C51.6306 20.5001 51.7406 20.4801 51.8606 20.4501C51.9106 20.4401 51.9206 20.4201 51.8906 20.3801C51.7206 20.2001 51.5206 20.0801 51.2706 20.0801Z" fill="white"/>
<path d="M10.6213 20.23C10.4113 20.2 10.1912 20.2 9.98125 20.27C9.84125 20.32 9.72125 20.41 9.64125 20.54C9.55125 20.68 9.53125 20.84 9.53125 21.03C9.53125 21.03 9.53125 21.14 9.54125 21.2C9.58125 21.5 9.73125 21.7 10.0212 21.77C10.2712 21.84 10.5312 21.84 10.7812 21.74C10.9713 21.67 11.1012 21.52 11.1412 21.33C11.2012 21.14 11.2012 20.93 11.1512 20.73C11.0812 20.43 10.8712 20.27 10.6012 20.22L10.6213 20.23Z" fill="white"/>
<path d="M34.6707 20.3002C34.5607 20.2602 34.4507 20.2402 34.3407 20.2202C34.1807 20.2202 34.0207 20.2502 33.8807 20.3302C33.6707 20.4502 33.5407 20.6502 33.4907 20.8902C33.4607 21.0602 33.4807 21.2402 33.5307 21.4102C33.6007 21.6202 33.7507 21.7502 33.9707 21.8102C34.1607 21.8602 34.3607 21.8602 34.5507 21.8102C34.8007 21.7602 34.9807 21.6202 35.0407 21.3702C35.1107 21.1202 35.1107 20.8502 35.0107 20.6102C34.9507 20.4602 34.8207 20.3402 34.6707 20.3002Z" fill="white"/>
<path d="M60.2713 13.9902H1.28125V26.0102H60.2713V13.9902ZM7.07125 20.9802C7.07125 21.0802 7.07125 21.0902 6.96125 21.0902H6.07125C6.00125 21.0902 6.00125 21.0902 6.00125 21.1602V23.7302C6.00125 23.7302 5.99125 23.8002 5.93125 23.8002H4.02125C4.02125 23.8002 3.96125 23.7702 3.96125 23.7302C3.97125 22.6102 3.97125 21.5002 3.97125 20.3802C3.97125 19.2802 3.97125 18.2002 3.97125 17.1102C3.97125 16.7902 4.12125 16.5402 4.39125 16.3602C4.58125 16.2202 4.81125 16.1702 5.05125 16.1702H7.80125C7.95125 16.1702 7.94125 16.1702 7.94125 16.3202V17.8602C7.94125 17.9502 7.94125 17.9702 7.83125 17.9702H6.48125C6.39125 17.9702 6.30125 17.9702 6.23125 18.0102C6.07125 18.0702 6.01125 18.2202 6.00125 18.3702C6.00125 18.6202 6.00125 18.8602 6.00125 19.1002V19.2402C6.00125 19.2402 6.03125 19.3102 6.07125 19.3102H6.96125C7.04125 19.3102 7.07125 19.3502 7.07125 19.4202V20.9802ZM13.1812 21.1302C13.1812 21.3102 13.1512 21.5702 13.0712 21.8202C12.9712 22.1602 12.8212 22.4502 12.6012 22.7302C12.4113 22.9802 12.1813 23.2002 11.9213 23.3902C11.7413 23.5102 11.5512 23.6202 11.3512 23.7002C10.9513 23.8502 10.5312 23.9102 10.1112 23.8702C9.87125 23.8502 9.63125 23.8002 9.39125 23.7102C8.84125 23.5002 8.42125 23.1402 8.06125 22.6902C7.91125 22.5002 7.80125 22.3002 7.72125 22.0802C7.65125 21.8902 7.59125 21.6802 7.57125 21.4702C7.54125 21.2602 7.53125 21.0502 7.54125 20.8502C7.57125 20.5602 7.62125 20.2902 7.73125 20.0202C7.91125 19.5702 8.21125 19.2002 8.58125 18.8902C8.77125 18.7202 9.00125 18.5902 9.24125 18.4902C9.69125 18.3002 10.1713 18.2402 10.6613 18.2802C10.8813 18.3002 11.1012 18.3502 11.3112 18.4202C11.6512 18.5402 11.9512 18.7202 12.2212 18.9602C12.4712 19.1802 12.6912 19.4402 12.8512 19.7402C12.9312 19.8902 13.0012 20.0502 13.0612 20.2202C13.1613 20.4702 13.1912 20.7702 13.1912 21.1402L13.1812 21.1302ZM18.9713 22.1802C18.7913 22.5602 18.5312 22.9002 18.2113 23.1702C17.9813 23.3802 17.7112 23.5502 17.4112 23.6802C17.0912 23.8102 16.7413 23.8702 16.4013 23.8602H16.3913C16.1413 23.8602 15.8912 23.8302 15.6412 23.7502C15.3912 23.6802 15.1413 23.5602 14.9213 23.4102C14.5613 23.1802 14.2512 22.8702 14.0112 22.5102C13.8812 22.3202 13.7812 22.1002 13.7113 21.8802C13.6013 21.5202 13.5613 21.1502 13.5913 20.7902C13.6013 20.5402 13.6613 20.3002 13.7413 20.0602C13.8912 19.6602 14.1213 19.3302 14.4113 19.0302C14.6512 18.8002 14.9112 18.5902 15.2212 18.4702C15.4512 18.3802 15.6912 18.3002 15.9412 18.2602C16.1613 18.2302 16.3912 18.2102 16.6112 18.2302C16.7612 18.2302 16.9113 18.2702 17.0513 18.3002C17.1613 18.3302 17.2812 18.3602 17.3913 18.4002C17.5312 18.4602 17.6813 18.5202 17.8113 18.6002C18.1112 18.7702 18.3612 19.0102 18.5812 19.2802C18.7612 19.5002 18.9112 19.7402 19.0112 20.0002C19.1712 20.4102 19.2313 20.8502 19.1912 21.2902C19.1612 21.5902 19.0912 21.8902 18.9613 22.1702L18.9713 22.1802ZM23.5413 23.7002C23.5413 23.7702 23.5413 23.7902 23.4613 23.7902H21.4212C21.1712 23.7902 20.9213 23.7102 20.7213 23.5402C20.5113 23.3702 20.3813 23.1002 20.3813 22.8302C20.3813 22.4302 20.3813 22.0402 20.3813 21.6302V20.3302C20.3813 20.2602 20.3713 20.2402 20.2913 20.2402H19.6313C19.5613 20.2402 19.5613 20.2402 19.5613 20.1702V18.5302C19.5613 18.4702 19.5713 18.4602 19.6313 18.4602H20.2812C20.3612 18.4602 20.3713 18.4502 20.3713 18.3702V16.7302C20.3713 16.6602 20.3713 16.6502 20.4513 16.6502H22.2712C22.3512 16.6502 22.3612 16.6502 22.3612 16.7402C22.3612 17.0402 22.3612 17.3502 22.3612 17.6602C22.3612 17.8902 22.3612 18.1202 22.3612 18.3602C22.3612 18.4502 22.3713 18.4602 22.4713 18.4602H23.0513C23.1213 18.4602 23.1313 18.4702 23.1313 18.5402V20.1702C23.1313 20.2402 23.1213 20.2502 23.0513 20.2502H22.4613C22.3813 20.2502 22.3713 20.2602 22.3713 20.3402V21.5202C22.3713 21.6202 22.3713 21.7302 22.4312 21.8202C22.4912 21.9302 22.5712 21.9902 22.6912 22.0102C22.7412 22.0102 22.8012 22.0102 22.8412 22.0102H23.4013C23.4913 22.0102 23.5012 22.0102 23.5012 22.1102V23.7002H23.5413ZM31.2512 23.7002C31.2512 23.7002 31.2412 23.7702 31.1812 23.7702H28.2113C28.0212 23.7702 27.8312 23.7302 27.6712 23.6302C27.5312 23.5502 27.4312 23.4202 27.3713 23.2702C27.3013 23.1002 27.2913 22.9302 27.2913 22.7502C27.3013 21.6802 27.3013 20.6202 27.3013 19.5602V16.2502C27.3013 16.1602 27.3013 16.1502 27.4013 16.1502H29.2013C29.2812 16.1502 29.2913 16.1602 29.2913 16.2502V21.4702C29.2913 21.5402 29.2913 21.6202 29.3013 21.6902C29.3313 21.8402 29.4513 21.9802 29.6213 22.0002C29.6912 22.0002 29.7512 22.0002 29.8312 22.0002H31.1712C31.2412 22.0002 31.2412 22.0102 31.2412 22.0902V23.7002H31.2512ZM37.0913 21.5202C37.0613 21.7502 36.9812 21.9902 36.8812 22.2002C36.6312 22.7502 36.2212 23.1502 35.7212 23.4702C35.5012 23.6102 35.2513 23.7102 35.0013 23.7702C34.7513 23.8102 34.5213 23.8402 34.2713 23.8402C34.0213 23.8402 33.7612 23.8102 33.5112 23.7402C33.2612 23.6702 33.0212 23.5602 32.8112 23.4102C32.5512 23.2402 32.3113 23.0302 32.1112 22.7902C31.9513 22.6002 31.8113 22.3702 31.7113 22.1502C31.5212 21.7002 31.4612 21.2202 31.5012 20.7502C31.5212 20.5102 31.5713 20.2702 31.6513 20.0502C31.7913 19.6702 32.0112 19.3302 32.3013 19.0402C32.5312 18.8102 32.8113 18.6102 33.1113 18.4702C33.2613 18.4002 33.4313 18.3602 33.5913 18.3202C33.9113 18.2502 34.2313 18.2202 34.5513 18.2502C34.7612 18.2702 34.9613 18.3002 35.1613 18.3602C35.3613 18.4202 35.5612 18.5102 35.7412 18.6102C35.9912 18.7602 36.2113 18.9502 36.4012 19.1702C36.5812 19.3602 36.7313 19.5802 36.8413 19.8102C36.9313 20.0002 37.0013 20.1902 37.0513 20.4102C37.1313 20.7802 37.1312 21.1502 37.0812 21.5302L37.0913 21.5202ZM42.7713 22.6302C42.5213 22.9902 42.2213 23.2902 41.8413 23.5202C41.5613 23.6802 41.2613 23.8002 40.9313 23.8402C40.7812 23.8702 40.6112 23.8702 40.4512 23.8902C40.4412 23.8902 40.4412 23.8802 40.4412 23.8602C40.1712 23.8602 39.9012 23.8202 39.6512 23.7502C39.4012 23.6802 39.1513 23.5602 38.9313 23.4102C38.5913 23.1902 38.3013 22.9102 38.0612 22.5802C37.9112 22.3702 37.7812 22.1302 37.7212 21.8802C37.6112 21.5102 37.5713 21.1402 37.6113 20.7602C37.6413 20.3802 37.7512 20.0102 37.9512 19.6702C38.1612 19.3002 38.4613 18.9802 38.8013 18.7302C39.0013 18.5802 39.2312 18.4602 39.4712 18.3802C39.9112 18.2302 40.3913 18.1902 40.8512 18.2702C41.0212 18.3002 41.1913 18.3402 41.3613 18.3802C41.6013 18.4502 41.8113 18.5702 42.0213 18.7102C42.3113 18.9202 42.5612 19.1802 42.7612 19.4802C42.7912 19.5102 42.7913 19.5402 42.7513 19.5602C42.3913 19.7902 42.0213 20.0202 41.6613 20.2402C41.5112 20.3402 41.3413 20.4402 41.1813 20.5402C41.1313 20.5702 41.0812 20.5602 41.0312 20.5102C40.9613 20.4402 40.9013 20.3702 40.8213 20.3202C40.7113 20.2302 40.5612 20.2102 40.4212 20.2202C40.2912 20.2202 40.1712 20.2202 40.0412 20.2802C39.8612 20.3502 39.7212 20.4602 39.6512 20.6402C39.5612 20.8602 39.5612 21.0902 39.6213 21.3202C39.6712 21.5302 39.8013 21.6902 40.0213 21.7602C40.2513 21.8402 40.4712 21.8602 40.7113 21.7902C40.8512 21.7502 40.9613 21.6602 41.0513 21.5402C41.0513 21.5302 41.0812 21.5102 41.0812 21.5002C41.0912 21.4702 41.1213 21.4702 41.1512 21.5002C41.5712 21.7702 42.0013 22.0402 42.4212 22.3102L42.7612 22.5302C42.7612 22.5302 42.8013 22.5802 42.7713 22.6102V22.6302ZM48.9012 23.7402H46.7012C46.7012 23.7402 46.6312 23.7202 46.6012 23.6902C46.2612 23.2902 45.9412 22.8802 45.6012 22.4802C45.5312 22.3902 45.4513 22.3102 45.3913 22.2202C45.3813 22.2102 45.3512 22.1902 45.3312 22.1802C45.3312 22.2102 45.3213 22.2202 45.3213 22.2502V23.6702C45.3213 23.7402 45.3213 23.7402 45.2313 23.7402H43.3913C43.3213 23.7402 43.2812 23.7002 43.2812 23.6302C43.2812 22.4002 43.2812 21.1702 43.2812 19.9302V16.2102C43.2812 16.1302 43.2912 16.1102 43.3812 16.1102H45.2212C45.2912 16.1102 45.3112 16.1202 45.3112 16.2002V19.7602C45.3112 19.7602 45.3213 19.7902 45.3213 19.8102L45.3713 19.7802C45.4212 19.7202 45.4613 19.6702 45.5112 19.6002C45.7612 19.2902 46.0113 18.9802 46.2713 18.6702C46.3013 18.6202 46.3413 18.6002 46.4113 18.6002H48.4313C48.4313 18.6002 48.4613 18.6002 48.4712 18.6302C48.4712 18.6302 48.4712 18.6602 48.4613 18.6702C48.3413 18.8202 48.2113 18.9702 48.0812 19.1302C47.7012 19.5902 47.3212 20.0602 46.9512 20.5102C46.8612 20.6202 46.7712 20.7302 46.6712 20.8502C46.6413 20.8902 46.6413 20.9202 46.6712 20.9602C46.9412 21.2802 47.2113 21.6002 47.4813 21.9302C47.8213 22.3302 48.1412 22.7202 48.4712 23.1202C48.6213 23.3102 48.7912 23.5002 48.9512 23.6802C48.9512 23.6902 48.9613 23.7102 48.9613 23.7302C48.9513 23.7302 48.9313 23.7402 48.9113 23.7402H48.9012ZM53.9813 20.8102C53.7913 20.8502 53.5912 20.8902 53.4012 20.9302C53.2313 20.9602 53.0612 21.0002 52.8913 21.0402C52.7213 21.0802 52.5513 21.1102 52.3713 21.1502C52.2013 21.1902 52.0312 21.2202 51.8613 21.2602C51.6813 21.3002 51.4912 21.3402 51.3112 21.3802C51.1512 21.4102 50.9812 21.4502 50.8112 21.4902L50.5612 21.5402C50.5612 21.5402 50.5312 21.5502 50.5312 21.5702C50.5312 21.5802 50.5412 21.6102 50.5612 21.6202C50.6413 21.6902 50.7312 21.7502 50.8112 21.8102C50.9613 21.9302 51.1413 21.9402 51.3213 21.9202C51.5713 21.8902 51.7612 21.7702 51.9012 21.5802C51.9512 21.5102 52.0112 21.5002 52.0812 21.5502L52.7012 21.9502C52.9712 22.1202 53.2513 22.3002 53.5213 22.4702C53.5813 22.5102 53.5812 22.5602 53.5312 22.6102C53.3512 22.8002 53.1912 22.9902 52.9912 23.1702C52.8812 23.2802 52.7712 23.3602 52.6312 23.4402C52.4812 23.5302 52.3112 23.6102 52.1512 23.6702C51.8913 23.7602 51.6113 23.8102 51.3413 23.8202C51.2913 23.8502 51.2313 23.8302 51.1912 23.8302L51.2113 23.8502C50.9613 23.8502 50.7012 23.8202 50.4512 23.7502C50.2012 23.6802 49.9513 23.5602 49.7313 23.4102C49.3713 23.1702 49.0513 22.8602 48.8112 22.5002C48.6812 22.3102 48.5812 22.1002 48.5112 21.8802C48.3612 21.4002 48.3413 20.9102 48.4412 20.4202C48.5112 20.1202 48.6213 19.8302 48.7812 19.5602C48.9613 19.2602 49.1813 19.0002 49.4412 18.7802C49.6413 18.6102 49.8812 18.4802 50.1213 18.3802C50.5412 18.2202 50.9713 18.1702 51.4113 18.1902C51.6413 18.2002 51.8713 18.2402 52.1012 18.3002C52.4313 18.4002 52.7212 18.5502 52.9912 18.7602C53.2712 18.9902 53.4913 19.2602 53.6613 19.5802C53.7513 19.7502 53.8413 19.9302 53.9113 20.1102C53.9813 20.3002 54.0213 20.5102 54.0213 20.7102C54.0213 20.7802 54.0112 20.7902 53.9412 20.8002L53.9813 20.8102ZM58.1413 19.9902C58.1413 20.0802 58.1412 20.0902 58.0412 20.0902C57.7412 20.0902 57.4412 20.0902 57.1312 20.0902C57.0312 20.0902 56.9412 20.1002 56.8413 20.1402C56.7013 20.1902 56.6512 20.3102 56.6312 20.4502C56.6312 20.5002 56.6312 20.5502 56.6312 20.6002V23.7102C56.6312 23.7102 56.6213 23.7802 56.5612 23.7802H54.7012C54.6312 23.7802 54.6213 23.7702 54.6213 23.7102C54.6113 22.9602 54.6012 22.2102 54.6213 21.4502V19.3702C54.6213 19.2402 54.6213 19.1002 54.6512 18.9702C54.7212 18.6702 54.8812 18.4702 55.1712 18.3802C55.3213 18.3302 55.4713 18.3202 55.6113 18.3202H58.0213C58.1013 18.3202 58.1213 18.3302 58.1213 18.4202V20.0102L58.1413 19.9902Z" fill="white"/>
<path d="M16.723 20.2399C16.503 20.1999 16.283 20.1999 16.063 20.2699C15.843 20.3399 15.703 20.4999 15.643 20.7299C15.593 20.9199 15.593 21.1099 15.643 21.2999C15.673 21.4399 15.743 21.5499 15.853 21.6399C16.043 21.7899 16.263 21.8099 16.493 21.8199C16.493 21.8199 16.563 21.8199 16.603 21.8199C16.753 21.8099 16.893 21.7699 17.003 21.6799C17.143 21.5699 17.213 21.4299 17.253 21.2599C17.283 21.0499 17.283 20.8399 17.213 20.6399C17.133 20.4099 16.963 20.2899 16.733 20.2399H16.723Z" fill="white"/>
</g>
</g>
<defs>
<clipPath id="clip0_38_4573">
<rect width="61" height="40" fill="white" transform="translate(0.28125)"/>
</clipPath>
<clipPath id="clip1_38_4573">
<rect width="61" height="40" fill="white" transform="translate(0.28125)"/>
</clipPath>
</defs>
</svg>
