<svg width="2" height="16" viewBox="0 0 2 16" fill="none" xmlns="http://www.w3.org/2000/svg">
<path d="M1.00391 6.5C1.00391 7.93437 0.974805 9.25938 0.925781 10.3344L1.17305 14.2937C1.19746 14.6844 1.19746 15.3188 1.17305 15.7094C1.14863 16.1 1.10898 16.1 1.08457 15.7094L0.837305 11.75C0.770117 12.5375 0.687305 13 0.597656 13C0.373242 13 0.191406 10.0906 0.191406 6.5C0.191406 2.90937 0.373242 0 0.597656 0C0.82207 0 1.00391 2.90937 1.00391 6.5ZM0.597656 11C0.634591 11 0.671163 10.8836 0.705286 10.6575C0.739409 10.4313 0.770414 10.0998 0.79653 9.68198C0.822646 9.26412 0.843363 8.76804 0.857497 8.22208C0.871632 7.67611 0.878906 7.09095 0.878906 6.5C0.878906 5.90905 0.871632 5.32389 0.857497 4.77792C0.843363 4.23196 0.822646 3.73588 0.79653 3.31802C0.770414 2.90016 0.739409 2.56869 0.705286 2.34254C0.671163 2.1164 0.634591 2 0.597656 2C0.560722 2 0.524149 2.1164 0.490027 2.34254C0.455904 2.56869 0.424899 2.90016 0.398782 3.31802C0.372666 3.73588 0.351949 4.23196 0.337815 4.77792C0.323681 5.32389 0.316406 5.90905 0.316406 6.5C0.316406 7.09095 0.323681 7.67611 0.337815 8.22208C0.351949 8.76804 0.372666 9.26412 0.398782 9.68198C0.424899 10.0998 0.455904 10.4313 0.490027 10.6575C0.524149 10.8836 0.560722 11 0.597656 11Z" fill="#1E1E1E"/>
</svg>
