<svg width="80" height="40" viewBox="0 0 80 40" fill="none" xmlns="http://www.w3.org/2000/svg">
<g clip-path="url(#clip0_38_4596)">
<g clip-path="url(#clip1_38_4596)">
<path d="M31.1406 18.2304H29.3506C28.9706 18.2304 28.7406 18.4538 28.6606 18.9004C28.5306 19.5704 28.5306 19.5905 29.0606 19.5905H30.1106L29.5006 23.0205C29.3506 23.8005 29.0206 24.3304 27.9806 24.6404C27.7106 24.7004 27.6406 24.8105 27.6406 24.9305C27.6406 25.0805 27.6806 25.2004 27.8106 25.4804C27.9806 25.8804 28.0806 25.9604 28.2106 25.9604C28.3406 25.9604 28.6106 25.9005 28.7206 25.8505C30.1906 25.3705 30.7806 24.2304 31.0406 22.8804L31.7106 19.0105C31.824 18.4771 31.634 18.2104 31.1406 18.2104" fill="white"/>
<path d="M37.1814 18.23C36.7014 18.23 36.428 18.4333 36.3614 18.84L35.8314 21.98C35.6814 22.89 35.4514 23.43 34.5514 23.43C33.6514 23.43 33.3714 22.9 33.5214 22.08L34.0314 19.09C34.1814 18.25 34.1614 18.25 33.4014 18.25C32.6814 18.25 32.6614 18.25 32.5614 18.82L32.0314 21.94C31.7114 23.73 32.8314 24.82 34.3914 24.82C36.1414 24.82 37.0414 24.02 37.3214 22.15L37.8514 19.06C38.0014 18.24 37.9614 18.24 37.2014 18.24" fill="white"/>
<path d="M40.4813 23.3504C41.0513 23.3304 41.3613 23.0604 41.3613 22.8004C41.3613 22.4604 40.9613 22.3404 40.3913 22.1704C39.3213 21.8304 38.3313 21.4504 38.3313 20.3004C38.3313 18.9304 39.4713 18.1704 40.8813 18.1704C41.4913 18.1704 42.1613 18.1904 42.5913 18.2304C42.9713 18.2704 43.0713 18.4004 42.9513 19.0104C42.8313 19.6204 42.6813 19.6604 42.3413 19.6404C41.9413 19.6204 41.3913 19.5804 40.7813 19.5804C40.0613 19.5804 39.8313 19.8504 39.8313 20.0904C39.8313 20.4104 40.1213 20.5704 40.8013 20.7604C42.0413 21.1204 42.8613 21.6204 42.8613 22.7204C42.8613 24.0004 41.9113 24.7404 40.4013 24.7804C39.6813 24.8004 38.9513 24.7604 38.2313 24.6504C37.7513 24.5904 37.7213 24.5904 37.8513 23.8704C37.9813 23.2404 37.9813 23.2004 38.4213 23.2404C39.3513 23.3504 39.8913 23.3704 40.4813 23.3504Z" fill="white"/>
<path d="M48.341 18.23H44.281C43.901 18.23 43.671 18.46 43.591 18.92C43.461 19.61 43.481 19.61 43.991 19.61H45.321L44.581 23.93C44.431 24.77 44.451 24.77 45.211 24.77C45.901 24.77 45.931 24.77 46.031 24.16L46.811 19.61H48.091C48.471 19.61 48.701 19.38 48.781 18.92C48.861 18.46 48.7144 18.23 48.341 18.23Z" fill="white"/>
<path d="M55.5195 19.6002C55.8995 19.6002 56.1295 19.3702 56.2095 18.9102C56.2895 18.4502 56.1562 18.2202 55.8095 18.2202H52.8995C51.8695 18.2202 51.8895 18.2202 51.7195 19.2502L50.9795 23.6102C50.7895 24.7502 50.8095 24.7502 51.8395 24.7502H54.6795C55.2895 24.7502 55.2495 24.7502 55.3695 24.0802C55.4562 23.6202 55.3229 23.3902 54.9695 23.3902H52.4895L52.6795 22.1502H54.7195C55.0862 22.1502 55.3029 21.9335 55.3695 21.5002C55.4429 21.0535 55.2262 20.8302 54.7195 20.8302H52.9095L53.0995 19.6502L55.4995 19.6302L55.5195 19.6002Z" fill="white"/>
<path d="M58.5894 21.9202L59.5394 19.8602C59.5794 19.7469 59.6427 19.6902 59.7294 19.6902C59.816 19.6902 59.866 19.7535 59.8794 19.8802L60.1694 21.9202H58.5894ZM61.1394 19.0402C61.0394 18.4935 60.6027 18.2202 59.8294 18.2202C58.7594 18.2202 58.7794 18.2202 58.4394 18.8902L56.0194 23.9602C55.6594 24.6802 55.7294 24.7602 56.6294 24.7602C57.0894 24.7602 57.4194 24.5435 57.6194 24.1102L57.9994 23.2502H60.3594L60.4894 24.1102C60.5994 24.7602 60.6194 24.7602 61.3094 24.7602C62.1094 24.7602 62.1694 24.7202 62.0294 23.9202L61.1494 19.0402H61.1394Z" fill="white"/>
<path d="M66.8819 18.23H62.8019C62.4219 18.23 62.1919 18.46 62.1119 18.92C61.9819 19.61 62.0319 19.61 62.5319 19.61H63.8619L63.1219 23.93C62.9719 24.77 62.9919 24.77 63.7519 24.77C64.4419 24.77 64.4719 24.77 64.5719 24.16L65.3519 19.61H66.6319C67.0119 19.61 67.2419 19.38 67.3219 18.92C67.4019 18.46 67.2552 18.23 66.8819 18.23Z" fill="white"/>
<path d="M25.2606 19.7502C25.2206 19.6402 24.6706 18.6302 23.6406 17.3502C23.6406 17.3502 23.6006 17.2902 23.6006 17.2402C23.5406 16.5002 23.4306 15.7502 23.2806 15.0302C23.2406 14.8802 23.1106 14.7602 22.9606 14.7602L21.8906 14.6302H21.8706C21.7406 14.6302 21.6406 14.7402 21.6406 14.8602V15.2402C21.6406 15.2402 21.6406 15.2602 21.6206 15.2602C20.9506 14.6502 20.2306 14.1002 19.4706 13.6402C19.3206 13.5302 19.1306 13.4702 18.9406 13.4702C18.7506 13.4702 18.5606 13.5302 18.4106 13.6402C14.7306 15.9102 12.7306 19.6002 12.6406 19.7902C12.5606 19.9802 12.6406 20.1902 12.8106 20.2702C12.8306 20.2702 12.8506 20.2902 12.8706 20.2902L13.9206 20.5002C14.0706 20.5402 14.1706 20.6702 14.1906 20.8202C14.1906 21.0102 14.4006 25.1802 14.6506 26.2502C14.6906 26.4202 14.8406 26.5202 15.0106 26.5202C15.6206 26.5002 16.1906 26.5002 16.8006 26.4802H16.8606C16.9206 26.4802 16.9906 26.4202 16.9906 26.3502C16.9706 25.9902 16.9106 25.1502 16.8606 24.2702V24.2102C16.8606 24.1502 16.8206 24.0602 16.7506 24.0402C16.4106 23.8502 16.2206 23.4902 16.2006 23.1102C16.1406 21.6602 16.1206 19.9502 16.2006 18.6302C16.2006 18.5002 16.3106 18.4202 16.4106 18.4202C16.5406 18.4202 16.6206 18.5302 16.6206 18.6302V18.6502C16.5806 19.5302 16.5606 20.5702 16.5806 21.6002C16.5806 21.7502 16.7106 21.8502 16.8306 21.8502C16.9806 21.8502 17.0806 21.7202 17.0806 21.6002C17.0606 20.5702 17.0606 19.5202 17.1206 18.6302C17.1206 18.5002 17.2306 18.4202 17.3306 18.4202C17.4606 18.4202 17.5406 18.5302 17.5406 18.6302V18.6502C17.5006 19.5302 17.4806 20.5702 17.5006 21.5802C17.5006 21.7302 17.6306 21.8302 17.7506 21.8302C17.9006 21.8302 18.0006 21.7002 18.0006 21.5802C17.9806 20.5502 17.9806 19.5002 18.0406 18.6302C18.0406 18.5002 18.1506 18.4202 18.2506 18.4202C18.3806 18.4202 18.4606 18.5302 18.4606 18.6302V18.6502C18.3806 19.9302 18.4206 21.5602 18.4606 22.9902V23.0302V23.0502C18.4606 23.4302 18.2706 23.7902 17.9506 24.0002C17.8906 24.0402 17.8706 24.1102 17.8706 24.1702C17.8706 24.1702 17.8506 24.3802 17.9306 25.4502C17.9706 25.9102 18.0106 26.2302 18.0406 26.3802C18.0406 26.4402 18.1006 26.4902 18.1506 26.4902H20.3406C20.4006 26.4902 20.4506 26.4502 20.4506 26.3802C20.6006 25.1202 20.6206 24.4002 20.6206 24.4002C20.6206 24.3402 20.5806 24.2902 20.5106 24.2702L19.7706 24.1602C19.6606 24.1402 19.5806 24.0802 19.5606 23.9902C19.5606 23.9502 19.5406 23.9102 19.5606 23.8802C19.8506 19.6302 21.2406 18.2002 21.2406 18.2002C21.2606 18.1802 21.2806 18.1602 21.3006 18.1402C21.4106 18.0802 21.5306 18.1002 21.6206 18.1802L21.6406 18.2202C21.6406 18.2602 21.6606 18.2802 21.6606 18.3302C21.7906 19.6602 21.7206 21.9302 21.6406 23.7002C21.5806 25.1902 21.4906 26.3702 21.4906 26.3702C21.4906 26.3702 21.5306 26.4502 21.5706 26.4502C21.9706 26.4502 22.3506 26.4702 22.7706 26.4702C22.9406 26.4702 23.0906 26.3602 23.1306 26.2002C23.3806 25.1302 23.5706 20.9602 23.5906 20.7702C23.6106 20.6202 23.7206 20.5002 23.8606 20.4502L24.9106 20.2402C25.1006 20.2002 25.2306 19.9902 25.1806 19.8002C25.2206 19.8002 25.2206 19.7802 25.2006 19.7402L25.2606 19.7502Z" fill="white"/>
</g>
</g>
<defs>
<clipPath id="clip0_38_4596">
<rect width="80" height="40" fill="white"/>
</clipPath>
<clipPath id="clip1_38_4596">
<rect width="80" height="40" fill="white"/>
</clipPath>
</defs>
</svg>
