<svg width="50" height="40" viewBox="0 0 50 40" fill="none" xmlns="http://www.w3.org/2000/svg">
<g clip-path="url(#clip0_38_4643)">
<g clip-path="url(#clip1_38_4643)">
<path d="M6.44814 28.5798C5.06814 28.4998 3.83814 28.1198 2.90814 27.4298C2.75814 27.2798 2.28814 26.8898 2.13814 26.6598C1.75814 26.1998 1.51814 25.7398 1.36814 25.2798C0.828136 23.7398 1.13814 21.7398 2.13814 19.5098C2.98814 17.5898 4.36814 15.7398 6.67814 13.1298C6.98814 12.7498 8.05814 11.5898 8.05814 11.5898C8.05814 11.5898 7.97814 11.6698 7.90814 11.8198C7.28814 12.8198 6.75814 14.0498 6.52814 15.0498C6.06814 16.7398 6.14814 18.1298 6.67814 19.2798C7.05814 20.0498 7.75814 20.6598 8.44814 21.0498C9.75814 21.6698 11.6781 21.7398 13.9881 21.1998C14.1381 21.1198 22.0581 19.0498 31.5981 16.5098C41.1381 13.9698 48.8981 11.8998 48.9781 11.8998C48.9781 11.8998 26.8281 21.3598 15.3781 26.2798C13.5281 27.0498 13.0681 27.2798 12.2281 27.5098C9.99814 28.2798 8.07814 28.5898 6.45814 28.5898L6.44814 28.5798Z" fill="white"/>
</g>
</g>
<defs>
<clipPath id="clip0_38_4643">
<rect width="49.25" height="40" fill="white" transform="translate(0.269531)"/>
</clipPath>
<clipPath id="clip1_38_4643">
<rect width="49.25" height="40" fill="white" transform="translate(0.269531)"/>
</clipPath>
</defs>
</svg>
