<svg width="101" height="40" viewBox="0 0 101 40" fill="none" xmlns="http://www.w3.org/2000/svg">
<g clip-path="url(#clip0_38_4647)">
<g clip-path="url(#clip1_38_4647)">
<path d="M15.7237 24.5496V20.53H17.7135C18.3134 20.53 18.7834 20.49 19.1833 20.45C19.5833 20.41 19.8932 20.33 20.1732 20.21C20.6932 20.01 21.0431 19.69 21.2431 19.3001C21.4831 18.9001 21.6031 18.4602 21.5631 17.9502C21.5631 17.4703 21.4431 17.0403 21.2431 16.6404C21.0431 16.2804 20.7632 16.0004 20.4032 15.8004C20.1632 15.6804 19.8832 15.6005 19.5333 15.5605C19.1833 15.5205 18.6934 15.4805 18.0634 15.4805H14.8438V24.5096H15.7137V24.5496H15.7237ZM15.7237 19.82V16.2804H17.9134C18.5134 16.2804 18.9833 16.2804 19.3433 16.3204C19.7033 16.3604 19.9832 16.4804 20.2132 16.6404C20.4132 16.7603 20.5332 16.9603 20.6532 17.2003C20.7732 17.4403 20.8132 17.6802 20.8132 18.0002C20.8132 18.4002 20.7332 18.7101 20.5732 18.9601C20.4132 19.2401 20.2132 19.4401 19.8932 19.5601C19.6533 19.68 19.3333 19.76 18.9333 19.8C18.5734 19.84 18.1334 19.88 17.7035 19.84H15.7137L15.7237 19.82ZM32.232 24.5496L29.3723 20.49C30.2122 20.41 30.8422 20.13 31.2821 19.69C31.7221 19.2501 31.922 18.7001 31.922 17.9802C31.922 17.4203 31.8021 16.9903 31.5621 16.5904C31.3221 16.1904 31.0021 15.9504 30.6522 15.7904C30.3322 15.6705 29.9722 15.5905 29.6223 15.5505C29.2223 15.5105 28.8224 15.5105 28.3524 15.5105H25.5727V24.5396H26.3726V20.6H28.5224L31.2221 24.5396H32.252L32.232 24.5496ZM26.3826 19.86V16.2804H28.4924C28.9323 16.2804 29.2923 16.2804 29.6023 16.3204C29.9222 16.3604 30.2022 16.4404 30.4022 16.6004C30.6422 16.7603 30.8022 16.9603 30.9221 17.2003C31.0421 17.4403 31.0821 17.7202 31.0821 18.0002C31.0821 18.3202 31.0421 18.5602 30.9621 18.7601C30.8821 18.9601 30.7622 19.1601 30.5622 19.3201C30.3622 19.5201 30.0822 19.6401 29.7223 19.72C29.3623 19.8 28.9623 19.84 28.4924 19.84H26.3826V19.88V19.86ZM37.4015 24.5496V15.5205H36.6016V24.5496H37.4015ZM50.5302 24.5496V15.5205H49.3403C48.6304 17.3903 48.1104 18.8201 47.7505 19.82C47.3905 20.7799 47.1105 21.5299 46.9505 22.0098C46.7906 22.4898 46.6306 22.9697 46.4706 23.3997C46.3106 22.9197 46.1506 22.4398 45.9506 21.9698C45.7507 21.4499 45.4707 20.7399 45.1107 19.78C44.7508 18.8201 44.2008 17.3903 43.4809 15.5605H42.331V24.5896H43.1309V17.5503C43.1309 17.0703 43.1309 16.6803 43.0909 16.4004C43.2109 16.8003 43.3709 17.2703 43.5709 17.7902C43.7709 18.3102 44.0508 19.0601 44.4408 20.1C44.8308 21.1399 45.4007 22.6398 46.1506 24.5896H46.7906C47.3905 22.9997 47.8605 21.6899 48.2604 20.6899C48.6604 19.69 48.9403 18.8601 49.1703 18.1802C49.4003 17.5003 49.6503 16.9103 49.8103 16.3904C49.8103 16.7103 49.7703 17.0703 49.7703 17.5403V24.5796H50.5302V24.5396V24.5496ZM61.8291 24.5496L58.4094 15.5205H57.5695L54.0698 24.5496H54.9397L55.8997 21.9198H59.9593L60.9192 24.5496H61.8291ZM56.1796 21.2099C56.5796 20.18 56.8896 19.3401 57.0895 18.7401C57.3295 18.1402 57.4895 17.6703 57.6095 17.3103C57.7295 16.9503 57.8495 16.6704 57.9294 16.4004C58.0094 16.6803 58.1294 16.9603 58.2494 17.3103C58.3694 17.6703 58.5294 18.1102 58.7694 18.7401C59.0093 19.3401 59.2893 20.17 59.6793 21.2099H56.1796ZM72.208 24.5496L69.3483 20.49C70.1882 20.41 70.8182 20.13 71.2581 19.69C71.6981 19.2501 71.8981 18.7001 71.8981 17.9802C71.8981 17.4203 71.7781 16.9903 71.5381 16.5904C71.2981 16.1904 70.9781 15.9504 70.6282 15.7904C70.3082 15.6705 69.9482 15.5905 69.5983 15.5505C69.1983 15.5105 68.7984 15.5105 68.3284 15.5105H65.5487V24.5396H66.3486V20.6H68.4984L71.1981 24.5396H72.228L72.208 24.5496ZM66.3586 19.86V16.2804H68.4684C68.9084 16.2804 69.2683 16.2804 69.5783 16.3204C69.8883 16.3604 70.1782 16.4404 70.3782 16.6004C70.6182 16.7603 70.7782 16.9603 70.8982 17.2003C71.0181 17.4403 71.0581 17.7202 71.0581 18.0002C71.0581 18.3202 71.0181 18.5602 70.9382 18.7601C70.8582 18.9601 70.7382 19.1601 70.5382 19.3201C70.3382 19.5201 70.0582 19.6401 69.6983 19.72C69.3383 19.8 68.9384 19.84 68.4684 19.84H66.3586V19.88V19.86ZM83.6569 24.5496L79.9572 19.0201L83.2569 15.5205H82.227L77.4175 20.65V15.5205H76.6176V24.5496H77.4175V21.6899L79.3673 19.6201L82.667 24.5496H83.6569Z" fill="white"/>
<path d="M86.5855 16.4006C86.5855 16.1206 86.4655 15.8806 86.3055 15.6906C86.1055 15.4906 85.8655 15.4106 85.5955 15.4106C85.3255 15.4106 85.0355 15.5306 84.8855 15.6906C84.6855 15.8906 84.6055 16.1306 84.6055 16.4006C84.6055 16.6706 84.7255 16.9206 84.9255 17.1106C85.1255 17.3006 85.3655 17.3906 85.6855 17.3906C85.9655 17.3906 86.2055 17.2706 86.3955 17.1106C86.4755 16.9506 86.5955 16.7106 86.5955 16.4006H86.5855ZM86.4255 16.4406C86.4255 16.6806 86.3455 16.8806 86.1855 17.0806C86.0255 17.2406 85.8255 17.3206 85.5855 17.3206C85.3455 17.3206 85.1055 17.2406 84.9455 17.0406C84.7855 16.8806 84.7055 16.6806 84.6655 16.4006C84.6655 16.1606 84.7455 15.9206 84.9055 15.7606C85.0655 15.6006 85.2655 15.5206 85.5455 15.5206C85.7855 15.5206 86.0255 15.6006 86.1855 15.7606C86.3455 15.9606 86.4255 16.1606 86.4255 16.4406ZM86.1055 17.0006L85.7855 16.5206C85.8655 16.4806 85.9455 16.4406 85.9855 16.4006C86.0255 16.3206 86.0655 16.2806 86.0655 16.1606C86.0655 16.0806 86.0655 16.0406 86.0255 16.0006C85.9855 15.9606 85.9455 15.9206 85.9055 15.8806C85.8655 15.8806 85.8255 15.8406 85.7855 15.8406H85.1855V17.0306H85.4255V16.5906H85.5855L85.8655 17.0306H86.1055V16.9906V17.0006ZM85.3955 16.3606V16.0406H85.7555C85.7555 16.0406 85.7955 16.0806 85.8355 16.0806C85.8355 16.1206 85.8755 16.1206 85.8755 16.1606V16.2406L85.8355 16.2806C85.8355 16.2806 85.7955 16.2806 85.7555 16.3206H85.3955V16.3606Z" fill="white"/>
</g>
</g>
<defs>
<clipPath id="clip0_38_4647">
<rect width="100.28" height="40" fill="white" transform="translate(0.585938)"/>
</clipPath>
<clipPath id="clip1_38_4647">
<rect width="100.28" height="40" fill="white" transform="translate(0.585938)"/>
</clipPath>
</defs>
</svg>
