<svg width="81" height="40" viewBox="0 0 81 40" fill="none" xmlns="http://www.w3.org/2000/svg">
<g clip-path="url(#clip0_38_4653)">
<g clip-path="url(#clip1_38_4653)">
<path d="M32.5453 19.8999C32.9853 19.8999 33.3153 19.8399 33.5553 19.6899C33.8953 19.4799 34.0353 19.1299 34.0353 18.6899C34.0353 18.2099 33.8653 17.8999 33.5953 17.7199C33.3553 17.5499 33.0153 17.4799 32.5153 17.4799H31.9353V23.1599H30.9453V16.8599H32.6753C33.3253 16.8599 33.8653 16.9299 34.3353 17.2199C35.0453 17.6799 35.0653 18.4099 35.0653 18.5699C35.0653 19.3599 34.6353 19.9499 33.8653 20.2099C33.7953 20.2399 33.7253 20.2499 33.6453 20.2699L35.6753 23.1599H34.5553L32.3253 19.8999H32.5453Z" fill="white"/>
<path d="M14.1938 19.8999C14.6338 19.8999 14.9638 19.8399 15.2038 19.6899C15.5438 19.4799 15.6838 19.1299 15.6838 18.6899C15.6838 18.2099 15.5138 17.8999 15.2438 17.7199C15.0038 17.5499 14.6637 17.4799 14.1637 17.4799H13.5837V23.1599H12.5938V16.8599H14.3238C14.9838 16.8599 15.5238 16.9299 15.9838 17.2199C16.6938 17.6799 16.7137 18.4099 16.7137 18.5699C16.7137 19.3599 16.2838 19.9499 15.5138 20.2099C15.4438 20.2399 15.3737 20.2499 15.2937 20.2699L17.3237 23.1599H16.2038L13.9738 19.8999H14.1938Z" fill="white"/>
<path d="M19.0642 16.8599H18.0742V23.1599H19.0642V16.8599Z" fill="white"/>
<path d="M25.4841 16.8599L23.1141 23.1599H22.3241L19.9141 16.8599H20.9941L22.8641 21.8299L24.6941 16.8599H25.4841Z" fill="white"/>
<path d="M27.2322 22.5399H30.1022V23.1599H26.2422V16.8599H29.8722V17.4699H27.2322V19.5599H29.7722V20.1799H27.2322V22.5399Z" fill="white"/>
<path d="M40.8142 16.8599H39.8242V23.1599H40.8142V16.8599Z" fill="white"/>
<path d="M44.1152 16.73C44.6552 16.73 45.2252 16.85 45.7352 17.06V17.89C45.1452 17.55 44.5352 17.38 44.0352 17.38C43.4052 17.38 42.9452 17.67 42.9452 18.2C42.9452 19.6 46.1652 19.35 46.1652 21.46C46.1652 22.47 45.4252 23.28 43.8952 23.28C43.2352 23.28 42.5752 23.13 42.0352 22.86V21.96C42.4752 22.34 43.2652 22.62 43.9652 22.62C44.6952 22.62 45.2752 22.3 45.2752 21.66C45.2752 20.16 42.0552 20.44 42.0552 18.35C42.0552 17.22 43.0052 16.73 44.1152 16.73Z" fill="white"/>
<path d="M48.2947 16.8599V22.5399H50.9947L50.7647 23.1599H47.3047V16.8599H48.2947Z" fill="white"/>
<path d="M53.0428 20.8701H55.1628L54.0928 18.1001L53.0428 20.8701ZM57.1228 23.1501H56.0328L55.3928 21.4901H52.8028L52.1728 23.1501H51.3828L53.8428 16.8501H54.6328L57.1328 23.1501H57.1228Z" fill="white"/>
<path d="M62.8933 16.8599V23.1599H62.2333L58.6233 18.4499V23.1599H57.8633V16.8599H58.6633L62.1433 21.3999V16.8599H62.8933Z" fill="white"/>
<path d="M67.3152 17.8601C66.9252 17.6101 66.4152 17.4901 65.6552 17.4901H65.0352V22.5201H65.6552C66.3552 22.5201 66.9152 22.4101 67.3152 22.1501C67.9352 21.7501 68.2352 21.0001 68.2352 20.0001C68.2352 19.0001 67.9452 18.2601 67.3152 17.8701M68.3352 22.4601C67.7752 22.9401 66.9552 23.1701 65.9752 23.1701H64.0352V16.8701H65.9752C66.9552 16.8701 67.7852 17.0901 68.3352 17.5701C68.9652 18.1201 69.2652 18.9801 69.2652 20.0101C69.2652 21.0401 68.9652 21.9101 68.3352 22.4501" fill="white"/>
</g>
</g>
<defs>
<clipPath id="clip0_38_4653">
<rect width="80" height="40" fill="white" transform="translate(0.933594)"/>
</clipPath>
<clipPath id="clip1_38_4653">
<rect width="80" height="40" fill="white" transform="translate(0.933594)"/>
</clipPath>
</defs>
</svg>
